# xmcd CD database file
#
# Track frame offsets:
#	187
#	26047
#	48322
#	76452
#	101215
#	125332
#	148242
#	167995
#	186147
#	211265
#	233487
#	262322
#
# Disc length: 3763 seconds
#
# Revision: 0
# Processed by: cddbd v1.5PL3 Copyright (c) Steve Scherf et al.
# Submitted via: CDex 1.50
#
DISCID=af0eb10c
DTITLE=鈴木彩子 - 24の誓い
DYEAR=1996
DGENRE=JPop
TTITLE0=24の誓い
TTITLE1=迷子の子猫
TTITLE2=願い叶いますように…
TTITLE3=地平線
TTITLE4=星屑たちのうた
TTITLE5=見えない翼
TTITLE6=「どうせ私なんて…」はやめよう!
TTITLE7=バタフライ
TTITLE8=君がいない夜
TTITLE9=もう誰にも止められない
TTITLE10=WORLD
TTITLE11=少年
EXTD=YEAR: 1996
EXTT0=
EXTT1=
EXTT2=
EXTT3=
EXTT4=
EXTT5=
EXTT6=
EXTT7=
EXTT8=
EXTT9=
EXTT10=
EXTT11=
PLAYORDER=
